<svg width="24" height="24" viewBox="0 0 24 24" fill="none" xmlns="http://www.w3.org/2000/svg">
<path d="M22.0007 12.0012C22.0007 17.5251 17.5227 22.0031 11.9988 22.0031C6.4748 22.0031 1.9968 17.5251 1.9968 12.0012C1.9968 6.4772 6.4748 1.9992 11.9988 1.9992C17.5227 1.9992 22.0007 6.4772 22.0007 12.0012Z" fill="#FFA800"/>
<path d="M6.6399 8.5773C7.1498 8.365 7.7364 8.6066 7.9487 9.1165L9.617 13.1231L11.1193 9.1477L11.1837 9.009C11.357 8.7023 11.6835 8.5056 12.0433 8.5011C12.455 8.4963 12.8285 8.7446 12.9829 9.1262L14.5789 13.0704L16.0362 9.1536C16.2286 8.636 16.804 8.3717 17.3216 8.5636C17.8391 8.756 18.1034 9.3315 17.9116 9.849L17.3998 11.2243H17.9214C18.4735 11.2243 18.9212 11.6724 18.9216 12.2245C18.9216 12.7769 18.4738 13.2247 17.9214 13.2247H16.6555L15.5557 16.1843C15.4118 16.5705 15.0458 16.8305 14.6336 16.8367C14.2213 16.8423 13.8468 16.5939 13.692 16.2116L12.0862 12.246L10.5977 16.1901C10.4527 16.573 10.0889 16.8296 9.6795 16.8367C9.27 16.8432 8.8954 16.5996 8.7379 16.2214L7.4838 13.211C7.4438 13.2159 7.404 13.2247 7.3627 13.2247H6.0753C5.5229 13.2247 5.0751 12.7769 5.0751 12.2245C5.0755 11.6724 5.5231 11.2243 6.0753 11.2243H6.6575L6.1007 9.8862C5.8885 9.3765 6.1306 8.79 6.6399 8.5773Z" fill="white"/>
</svg>
