<svg width="24" height="24" viewBox="0 0 24 24" fill="none" xmlns="http://www.w3.org/2000/svg">
<path d="M4.1314 9.036C3.87 8.9627 3.5827 9.0003 3.36 9.137C3.1333 9.2704 2.9988 9.489 3 9.722V19.8326C3.0026 20.1422 3.2359 20.4169 3.5829 20.5187L8.7257 21.9631C8.8148 21.9857 8.907 21.9978 9 21.9992V10.4008L4.1314 9.036Z" fill="#5BD59A"/>
<path d="M14.68 9.0354L9 10.4003V21.9992C9.1085 21.9978 9.2161 21.9857 9.32 21.9631L15 20.5981V8.9992C14.8915 9 14.7837 9.0122 14.68 9.0354Z" fill="#12BA73"/>
<path d="M20.4171 10.4798L15.2743 9.0354C15.1851 9.0112 15.0925 8.9992 15 8.9992V20.5981L19.8686 21.963C19.9576 21.9856 20.0499 21.9977 20.1428 21.9991C20.3221 22.0013 20.497 21.953 20.64 21.862C20.8667 21.7286 21.0012 21.5099 21 21.2769V11.1659C20.9974 10.8563 20.764 10.5816 20.4171 10.4798Z" fill="#86E5B7"/>
<path d="M12 1.9992C10.6744 2.0007 9.4034 2.524 8.4661 3.4543C7.5287 4.3847 7.0015 5.6461 7 6.9618C7 11.0257 11.4444 14.9329 11.6344 15.0961C11.735 15.1852 11.8652 15.2345 12 15.2345C12.1348 15.2345 12.265 15.1852 12.3656 15.0961C12.5556 14.9329 17 11.0257 17 6.9618C17 4.2258 14.7567 1.9992 12 1.9992Z" fill="#006840"/>
<path d="M12 8.3967C13.0355 8.3967 13.875 7.5572 13.875 6.5217C13.875 5.4861 13.0355 4.6467 12 4.6467C10.9645 4.6467 10.125 5.4861 10.125 6.5217C10.125 7.5572 10.9645 8.3967 12 8.3967Z" fill="white"/>
</svg>
